<svg version="1.2" xmlns="http://www.w3.org/2000/svg" xmlns:xlink="http://www.w3.org/1999/xlink" overflow="visible" preserveAspectRatio="none" viewBox="0 0 268.00000000000006 39.00000000000001" width="268.00000000000006" height="39.00000000000001"><g transform="translate(0, 0)"><defs><path id="path-163413814611017" d="M0 10.000000000000002 C0 4.477152502000001 4.477152502000001 0 10.000000000000002 0 C10.000000000000002 0 258.00000000000045 0 258.00000000000045 0 C263.52284749800043 0 268.00000000000045 4.477152502000001 268.00000000000045 10.000000000000002 C268.00000000000045 10.000000000000002 268.00000000000045 29.000000000000043 268.00000000000045 29.000000000000043 C268.00000000000045 34.52284749800004 263.52284749800043 39.00000000000004 258.00000000000045 39.00000000000004 C258.00000000000045 39.00000000000004 10.000000000000002 39.00000000000004 10.000000000000002 39.00000000000004 C4.477152502000001 39.00000000000004 0 34.52284749800004 0 29.000000000000043 C0 29.000000000000043 0 10.000000000000002 0 10.000000000000002 Z" vector-effect="non-scaling-stroke"/></defs><g transform="translate(0, 0)"><path d="M0 10.000000000000002 C0 4.477152502000001 4.477152502000001 0 10.000000000000002 0 C10.000000000000002 0 258.00000000000045 0 258.00000000000045 0 C263.52284749800043 0 268.00000000000045 4.477152502000001 268.00000000000045 10.000000000000002 C268.00000000000045 10.000000000000002 268.00000000000045 29.000000000000043 268.00000000000045 29.000000000000043 C268.00000000000045 34.52284749800004 263.52284749800043 39.00000000000004 258.00000000000045 39.00000000000004 C258.00000000000045 39.00000000000004 10.000000000000002 39.00000000000004 10.000000000000002 39.00000000000004 C4.477152502000001 39.00000000000004 0 34.52284749800004 0 29.000000000000043 C0 29.000000000000043 0 10.000000000000002 0 10.000000000000002 Z" style="stroke: rgb(140, 140, 140); stroke-width: 0; stroke-linecap: butt; stroke-linejoin: miter; fill: rgb(173, 173, 173);" vector-effect="non-scaling-stroke"/></g></g></svg>